<svg width="14" height="16" viewBox="0 0 14 16" fill="current" xmlns="http://www.w3.org/2000/svg">
<path d="M5.63809 0C4.96483 0 4.41905 0.551035 4.41905 1.23077V1.53846H1.30612C0.58477 1.53846 0 2.12886 0 2.85714C0 3.14846 0.23391 3.38462 0.522447 3.38462H13.1918C13.4804 3.38462 13.7143 3.14846 13.7143 2.85714C13.7143 2.12886 13.1295 1.53846 12.4082 1.53846H9.29524V1.23077C9.29524 0.551035 8.74945 0 8.07619 0H5.63809Z" fill="current"/>
<path d="M1.82857 4.46154H11.8857V14.4615C11.8857 15.3112 11.2035 16 10.3619 16H3.35238C2.51081 16 1.82857 15.3112 1.82857 14.4615V4.46154Z" fill="current"/>
</svg>
