<svg width="28" height="31" viewBox="0 0 28 31" fill="none" xmlns="http://www.w3.org/2000/svg">
<path fill-rule="evenodd" clip-rule="evenodd" d="M15.5556 1.55C15.5556 0.693959 14.8591 0 14 0C13.1409 0 12.4444 0.693959 12.4444 1.55V17.958L8.87772 14.404C8.27024 13.7987 7.28532 13.7987 6.67783 14.404C6.07035 15.0093 6.07035 15.9907 6.67783 16.596L12.9001 22.796C13.5075 23.4013 14.4925 23.4013 15.0999 22.796L21.3222 16.596C21.9296 15.9907 21.9296 15.0093 21.3222 14.404C20.7147 13.7987 19.7298 13.7987 19.1223 14.404L15.5556 17.958V1.55ZM1.55556 27.9C0.696446 27.9 0 28.594 0 29.45C0 30.306 0.696446 31 1.55556 31H26.4444C27.3036 31 28 30.306 28 29.45C28 28.594 27.3036 27.9 26.4444 27.9H1.55556Z" fill="#D8D8D8"/>
</svg>
