<svg xmlns="http://www.w3.org/2000/svg" width="131" height="76" viewBox="0 0 131 76"><defs><style>.a{fill:#118960;stroke:#118960;}</style></defs><path class="a" d="M123.444,24H33.889A11.581,11.581,0,0,0,22.333,35.538v4.327a2.889,2.889,0,0,0,5.778,0V35.538a7.23,7.23,0,0,1,.289-1.731L60.756,61.5,28.4,89.192a7.23,7.23,0,0,1-.289-1.731V83.135a2.889,2.889,0,0,0-5.778,0v4.327A11.581,11.581,0,0,0,33.889,99h89.556A11.581,11.581,0,0,0,135,87.462V35.538A11.581,11.581,0,0,0,123.444,24ZM32.733,29.913a2.82,2.82,0,0,1,1.156-.144h89.556a2.82,2.82,0,0,1,1.156.144L80.544,67.558a3.041,3.041,0,0,1-3.756,0Zm90.711,63.317H33.889a2.82,2.82,0,0,1-1.156-.144l32.5-27.837,7.8,6.779a8.416,8.416,0,0,0,11.267,0l7.8-6.779,32.5,27.837A2.82,2.82,0,0,1,123.444,93.231Zm5.778-5.769a7.23,7.23,0,0,1-.289,1.731L96.578,61.5l32.356-27.692a7.23,7.23,0,0,1,.289,1.731ZM13.667,54.288A2.9,2.9,0,0,1,16.556,51.4H33.889a2.885,2.885,0,1,1,0,5.769H16.556A2.9,2.9,0,0,1,13.667,54.288ZM33.889,71.6h-26a2.885,2.885,0,1,1,0-5.769h26a2.885,2.885,0,1,1,0,5.769Z" transform="translate(-4.5 -23.5)"/></svg>