<svg width="25" height="22" viewBox="0 0 25 22" fill="none" xmlns="http://www.w3.org/2000/svg">
<path fill-rule="evenodd" clip-rule="evenodd" d="M9.75812 10.4963C9.08972 10.77 8.25415 10.9988 7.3547 11.048C6.00252 11.1221 4.45913 10.7889 3.17298 9.54199C1.90597 8.31366 1.31664 6.55391 1.06047 4.96395C0.801872 3.35889 0.861933 1.79841 1.00085 0.828308L1.09352 0.181123L1.74253 0.102258C2.73207 -0.0179857 4.3323 -0.069007 5.98498 0.158785C7.61731 0.383772 9.43007 0.897815 10.7238 2.00874C12.4292 3.47306 12.5688 5.44174 12.2553 6.95958C12.0985 7.71889 11.8246 8.4007 11.546 8.91999C11.427 9.14177 11.3023 9.34295 11.1787 9.51345C11.6684 10.51 12.0464 11.5484 12.337 12.5737C12.463 13.0186 12.5734 13.4636 12.6698 13.9049C12.7641 13.6338 12.8658 13.3628 12.9756 13.0932C13.3098 12.2719 13.721 11.4555 14.2225 10.6796C13.9357 9.97245 13.6939 9.05172 13.6718 8.06071C13.6417 6.70685 14.0247 5.17507 15.3127 3.93005C16.5815 2.70356 18.3594 2.17162 19.9568 1.96716C21.5694 1.76076 23.1271 1.87141 24.0922 2.04172L24.7361 2.15534L24.7938 2.80657C24.8819 3.79949 24.881 5.40053 24.5997 7.04495C24.3219 8.66913 23.7493 10.4642 22.597 11.7213C21.0781 13.3783 19.106 13.4539 17.5991 13.0914C16.8453 12.91 16.1727 12.6142 15.6627 12.3189C15.5497 12.2534 15.4422 12.1866 15.3417 12.1194C15.042 12.6402 14.7815 13.1827 14.5562 13.7364C13.5378 16.2388 13.2747 18.889 13.3452 20.5387C13.3653 21.0095 13 21.4075 12.5292 21.4276C12.5018 21.4288 12.4747 21.4286 12.4479 21.4272C12.421 21.4286 12.3939 21.4288 12.3665 21.4276C11.8957 21.4075 11.5304 21.0095 11.5505 20.5387C11.6228 18.848 11.5128 15.924 10.6952 13.0389C10.448 12.1667 10.1396 11.3095 9.75812 10.4963ZM4.36077 8.31679C3.47529 7.45833 2.97571 6.12328 2.74519 4.69251C2.57075 3.60981 2.56217 2.54435 2.62034 1.73603C3.47082 1.68298 4.59955 1.69041 5.75198 1.84925C7.26385 2.05763 8.68747 2.50939 9.61217 3.30339C10.6799 4.22022 10.824 5.4531 10.5841 6.61445C10.4931 7.05514 10.3489 7.46521 10.1929 7.80839C9.28935 6.47621 8.1265 5.29702 6.63289 4.43353C6.22494 4.19768 5.70304 4.3372 5.46719 4.74515C5.23134 5.15311 5.37086 5.67501 5.77881 5.91086C7.09189 6.66998 8.12302 7.74143 8.92779 8.98879C8.45074 9.16557 7.87215 9.31067 7.26139 9.34411C6.26341 9.39876 5.22711 9.15668 4.36077 8.31679ZM20.1735 3.6598C18.736 3.84378 17.3854 4.29979 16.4987 5.15696C15.6311 5.9956 15.3556 7.0235 15.3778 8.02273C15.3856 8.37209 15.4301 8.71213 15.497 9.02946C16.5475 7.89213 17.8653 6.93284 19.5084 6.30599C19.9487 6.13803 20.4418 6.35878 20.6097 6.79905C20.7777 7.23932 20.5569 7.73239 20.1167 7.90036C18.5165 8.51082 17.2678 9.50577 16.3016 10.7084C16.3654 10.7507 16.4376 10.7957 16.5179 10.8421C16.9021 11.0647 17.4222 11.2937 17.9983 11.4323C19.1512 11.7096 20.3881 11.6057 21.3391 10.5682C22.1627 9.66977 22.6604 8.26156 22.9177 6.75724C23.1138 5.61057 23.1579 4.48267 23.1325 3.63092C22.3264 3.54656 21.2613 3.52057 20.1735 3.6598Z" fill="#46A23E"/>
</svg>
