<svg width="18" height="23" viewBox="0 0 18 23" fill="none" xmlns="http://www.w3.org/2000/svg">
<path d="M5.90476 11.8182C5.37878 11.8182 4.95238 12.2252 4.95238 12.7273C4.95238 13.2294 5.37878 13.6364 5.90476 13.6364H12.3333C12.8593 13.6364 13.2857 13.2294 13.2857 12.7273C13.2857 12.2252 12.8593 11.8182 12.3333 11.8182H5.90476Z" fill="#46A23E"/>
<path d="M4.95238 17.0909C4.95238 16.5888 5.37878 16.1818 5.90476 16.1818H12.3333C12.8593 16.1818 13.2857 16.5888 13.2857 17.0909C13.2857 17.593 12.8593 18 12.3333 18H5.90476C5.37878 18 4.95238 17.593 4.95238 17.0909Z" fill="#46A23E"/>
<path fill-rule="evenodd" clip-rule="evenodd" d="M2.47619 0C1.10863 0 0 1.05824 0 2.36364V20.6364C0 21.9418 1.10863 23 2.47619 23H15.5238C16.8914 23 18 21.9418 18 20.6364V6.55169C18 5.58726 17.5986 4.66234 16.8842 3.98039L13.8301 1.06507C13.1156 0.383117 12.1467 0 11.1363 0H2.47619ZM1.90476 2.36364C1.90476 2.06239 2.1606 1.81818 2.47619 1.81818H9.95238C10.268 1.81818 10.5238 2.06239 10.5238 2.36364V5.04545C10.5238 6.20023 11.5045 7.13636 12.7143 7.13636H15.5238C15.8394 7.13636 16.0952 7.38057 16.0952 7.68182V20.6364C16.0952 20.9376 15.8394 21.1818 15.5238 21.1818H2.47619C2.1606 21.1818 1.90476 20.9376 1.90476 20.6364V2.36364Z" fill="#46A23E"/>
</svg>
