<svg width="156" height="32" viewBox="0 0 156 32" fill="none" xmlns="http://www.w3.org/2000/svg">
<path d="M22.1069 19.9606L18.3038 26.5654L9.94374 12.1857L6.8045 13.9972L16.7511 31.0999C17.0774 31.6512 17.6737 32 18.3151 32C18.9564 32 19.564 31.6512 19.879 31.0999L25.2574 21.7947L22.1069 19.9606Z" fill="#98C21F"/>
<path d="M36.1941 1.00119C35.8678 0.438598 35.2714 0.101045 34.6301 0.101045L24.2222 0.0672913V3.69036L31.5021 3.71286L23.4121 17.7213L26.5513 19.5216L36.2053 2.80147C36.5091 2.26138 36.5091 1.57503 36.1941 1.00119Z" fill="#46A23E"/>
<path d="M0.244726 0.911393C-0.0815752 1.47398 -0.0815752 2.16034 0.244726 2.72293L5.4993 11.7581L8.63854 9.94655L4.97046 3.63432L21.6343 3.69058V0.0675112L1.83122 0C1.16737 0 0.571027 0.348805 0.244726 0.911393Z" fill="white"/>
<path d="M106.698 25.0464V22.9873H101.612V10.8354H97.9887V25.0464H106.698Z" fill="#98C21F"/>
<path d="M118.321 25.0464V22.9873H113.235V10.8354H109.612V25.0464H118.321Z" fill="#46A23E"/>
<path d="M50.7201 25.0464V22.9873H45.6343V10.8354H42.0112V25.0464H50.7201Z" fill="white"/>
<path d="M124.858 10.8354H121.235V25.0464H124.858V10.8354Z" fill="white"/>
<path d="M91.1814 24.9452H95.6146L90.4388 10.2166H86.5232L81.1449 24.9452H83.6315L84.993 20.8045H89.865L91.1814 24.9452ZM85.6793 18.7342L87.4796 13.2433L89.2124 18.7342H85.6793Z" fill="white"/>
<path d="M151.536 24.9452H155.969L150.793 10.2166H146.878L141.499 24.9452H143.986L145.347 20.8045H150.219L151.536 24.9452ZM146.034 18.7342L147.834 13.2433L149.567 18.7342H146.034Z" fill="white"/>
<path d="M62.3432 25.0464V22.9873H57.2574V18.5429H61.8031V16.4725H57.2574V12.9057H62.3432V10.8354H53.6343V25.0464H62.3432Z" fill="white"/>
<path d="M139.902 24.9001V22.8298H133.229L140.262 10.3741H128.2V12.5907H134.861L127.907 24.9001H139.902Z" fill="white"/>
<path d="M78.8495 13.2996C78.2644 13.7271 77.6906 14.1547 77.0717 14.6048C76.8467 14.2447 76.6442 13.8847 76.4079 13.5584C75.3615 12.0619 73.7412 11.4768 72.0872 12.0169C70.7483 12.4557 70.0619 13.5246 69.7243 14.7848C69.218 16.6188 69.1505 18.4866 69.8144 20.2869C70.3882 21.8396 71.3896 22.9761 73.1674 23.1448C74.1013 23.2349 74.9677 22.9986 75.744 22.4585C75.8678 22.3685 75.9578 22.1547 75.9578 21.9972C75.9803 21.3671 75.9578 20.7257 75.9691 20.0956C75.9803 19.0492 76.6442 18.3628 77.6906 18.3066C78.512 18.2616 79.1646 18.8579 79.2771 19.8593C79.3558 20.6582 79.3446 21.4683 79.3333 22.2672C79.3333 22.4135 79.1646 22.5823 79.052 22.7173C77.6456 24.2363 75.8228 24.8664 73.82 25.0239C71.2658 25.2377 68.9367 24.6976 67.0802 22.796C65.3924 21.0633 64.8748 18.9592 65.1111 16.6076C65.3812 13.8734 67.384 10.8804 71.1533 10.2053C74.1688 9.66524 76.8917 10.3741 78.7032 13.0408C78.7595 13.1195 78.7933 13.1983 78.8495 13.2996Z" fill="white"/>
</svg>
