<svg width="15" height="15" viewBox="0 0 15 15" fill="none" xmlns="http://www.w3.org/2000/svg">
<path fill-rule="evenodd" clip-rule="evenodd" d="M1.72589 1.72589C4.02707 -0.575296 7.75803 -0.575296 10.0592 1.72589C12.1664 3.83306 12.344 7.13908 10.5922 9.4484L14.2259 13.0821C14.5417 13.3979 14.5417 13.91 14.2259 14.2259C13.91 14.5417 13.3979 14.5417 13.0821 14.2259L9.4484 10.5922C7.13908 12.344 3.83306 12.1664 1.72589 10.0592C-0.575296 7.75803 -0.575296 4.02707 1.72589 1.72589ZM9.24222 2.54288C7.39225 0.69291 4.39285 0.692909 2.54288 2.54288C0.692909 4.39285 0.692909 7.39225 2.54288 9.24222C4.39285 11.0922 7.39225 11.0922 9.24222 9.24222C11.0922 7.39225 11.0922 4.39285 9.24222 2.54288Z" fill="#717171"/>
</svg>
