<svg width="22" height="20" viewBox="0 0 22 20" fill="none" xmlns="http://www.w3.org/2000/svg">
<path fill-rule="evenodd" clip-rule="evenodd" d="M8.04805 9.51666C7.44203 9.76479 6.68445 9.97219 5.86895 10.0169C4.64297 10.084 3.24363 9.78191 2.07752 8.65139C0.928772 7.53771 0.394442 5.94221 0.162184 4.50064C-0.0722791 3.04539 -0.0178237 1.63056 0.108125 0.750999L0.192148 0.164218L0.780586 0.0927143C1.67777 -0.016307 3.12864 -0.0625663 4.62707 0.143965C6.10705 0.347953 7.75061 0.814018 8.92363 1.82125C10.4698 3.14891 10.5964 4.93384 10.3122 6.31001C10.17 6.99845 9.92168 7.61663 9.66908 8.08745C9.56119 8.28853 9.44814 8.47093 9.33599 8.62552C9.77999 9.52905 10.1228 10.4705 10.3862 11.4001C10.5005 11.8035 10.6006 12.207 10.688 12.6071C10.7734 12.3613 10.8657 12.1156 10.9652 11.8711C11.2682 11.1265 11.641 10.3863 12.0957 9.68279C11.8357 9.04168 11.6164 8.20688 11.5964 7.30837C11.5691 6.08087 11.9164 4.69206 13.0842 3.56324C14.2345 2.45122 15.8465 1.96893 17.2949 1.78356C18.757 1.59642 20.1693 1.69675 21.0443 1.85116L21.628 1.95417L21.6804 2.54462C21.7603 3.44487 21.7594 4.89647 21.5044 6.38742C21.2525 7.86 20.7334 9.48758 19.6886 10.6273C18.3115 12.1296 16.5234 12.1982 15.1572 11.8695C14.4737 11.7051 13.8639 11.4368 13.4016 11.1691C13.299 11.1097 13.2016 11.0491 13.1105 10.9882C12.8387 11.4604 12.6026 11.9523 12.3983 12.4543C11.475 14.7232 11.2364 17.126 11.3003 18.6217C11.3186 19.0486 10.9873 19.4094 10.5605 19.4277C10.5357 19.4287 10.5111 19.4286 10.4868 19.4273C10.4624 19.4286 10.4378 19.4287 10.413 19.4277C9.98616 19.4094 9.65491 19.0486 9.67315 18.6217C9.73866 17.0888 9.63894 14.4378 8.89763 11.822C8.67352 11.0312 8.3939 10.254 8.04805 9.51666ZM3.15445 7.54055C2.35161 6.76222 1.89867 5.55177 1.68966 4.25454C1.53151 3.27289 1.52372 2.30687 1.57646 1.574C2.34756 1.5259 3.37095 1.53264 4.41582 1.67665C5.78658 1.86559 7.07732 2.27518 7.91571 2.99507C8.88379 3.82633 9.01441 4.94414 8.79696 5.9971C8.71444 6.39666 8.58372 6.76845 8.44223 7.0796C7.62303 5.87176 6.56871 4.80263 5.21451 4.01973C4.84463 3.80589 4.37144 3.93239 4.1576 4.30227C3.94377 4.67215 4.07026 5.14534 4.44014 5.35918C5.63066 6.04744 6.56556 7.01889 7.29522 8.14983C6.86268 8.31011 6.3381 8.44166 5.78435 8.47199C4.87951 8.52154 3.93993 8.30205 3.15445 7.54055ZM17.4913 3.31822C16.188 3.48503 14.9635 3.89847 14.1595 4.67564C13.3729 5.436 13.1231 6.36796 13.1432 7.27394C13.1503 7.59069 13.1907 7.89899 13.2513 8.1867C14.2037 7.15553 15.3986 6.28577 16.8883 5.71743C17.2875 5.56514 17.7345 5.76529 17.8868 6.16447C18.0391 6.56364 17.839 7.0107 17.4398 7.16298C15.989 7.71647 14.8568 8.61856 13.9808 9.70892C14.0387 9.7473 14.1041 9.78806 14.1769 9.83019C14.5253 10.0319 14.9968 10.2396 15.5191 10.3652C16.5645 10.6167 17.6859 10.5224 18.5481 9.58184C19.2948 8.76725 19.7461 7.49047 19.9794 6.12656C20.1572 5.08691 20.1972 4.06428 20.1741 3.29203C19.4433 3.21554 18.4776 3.19198 17.4913 3.31822Z" fill="#98C21F"/>
</svg>
