<svg width="22" height="20" viewBox="0 0 22 20" fill="none" xmlns="http://www.w3.org/2000/svg">
<path d="M10.4394 0.276022C10.7336 -0.0920072 11.3123 -0.0920072 11.6065 0.276022L15.8138 5.54026C16.1839 6.00332 15.8391 6.67183 15.2302 6.67183H13.2275V12.5661C13.2275 12.9548 12.8986 13.2699 12.4927 13.2699H9.55322C9.14735 13.2699 8.81836 12.9548 8.81836 12.5661V6.67183H6.81569C6.20678 6.67183 5.86204 6.00332 6.23212 5.54026L10.4394 0.276022Z" fill="#D8D8D8"/>
<path d="M0 13.9737V18.6364C0 19.3895 0.637457 20 1.4238 20H20.5762C21.3625 20 22 19.3895 22 18.6364V13.9737C22 13.585 21.671 13.2699 21.2651 13.2699H19.8873C19.4814 13.2699 19.1524 13.585 19.1524 13.9737V16.569C19.1524 16.9577 18.8234 17.2728 18.4175 17.2728H3.58246C3.17661 17.2728 2.8476 16.9577 2.8476 16.569V13.9737C2.8476 13.585 2.51859 13.2699 2.11273 13.2699H0.734864C0.32901 13.2699 0 13.585 0 13.9737Z" fill="#D8D8D8"/>
</svg>
