<svg width="18" height="21" viewBox="0 0 18 21" fill="none" xmlns="http://www.w3.org/2000/svg">
<path fill-rule="evenodd" clip-rule="evenodd" d="M12.225 9.81705C13.5741 8.82767 14.4495 7.23345 14.4495 5.43529C14.4495 2.43346 12.0097 0 9 0C5.9903 0 3.55046 2.43346 3.55046 5.43529C3.55046 7.23345 4.42594 8.82767 5.77496 9.81705C2.39743 11.1105 0 14.376 0 18.2C0 18.2712 0.000833739 18.3423 0.00249263 18.4132C0.0404096 20.0331 1.48806 21 2.87438 21H15.1256C16.5119 21 17.9596 20.0331 17.9975 18.4132C17.9992 18.3423 18 18.2712 18 18.2C18 14.376 15.6026 11.1105 12.225 9.81705ZM5.20184 5.43529C5.20184 3.34311 6.90233 1.64706 9 1.64706C11.0977 1.64706 12.7982 3.34311 12.7982 5.43529C12.7982 7.52748 11.0977 9.22353 9 9.22353C6.90233 9.22353 5.20184 7.52748 5.20184 5.43529ZM9 10.8706C4.94147 10.8706 1.65138 14.1521 1.65138 18.2C1.65138 18.2584 1.65206 18.3167 1.65342 18.3747C1.66506 18.8721 2.13734 19.3529 2.87438 19.3529H15.1256C15.8627 19.3529 16.3349 18.8721 16.3466 18.3747C16.3479 18.3167 16.3486 18.2584 16.3486 18.2C16.3486 14.1521 13.0585 10.8706 9 10.8706Z" fill="#98C21F"/>
</svg>
